<?xml version="1.0" encoding="UTF-8"?>
<!DOCTYPE svg PUBLIC "-//W3C//DTD SVG 1.1//EN" "http://www.w3.org/Graphics/SVG/1.1/DTD/svg11.dtd">
<svg xmlns="http://www.w3.org/2000/svg" version="1.1" width="512px" height="512px" style="shape-rendering:geometricPrecision; text-rendering:geometricPrecision; image-rendering:optimizeQuality; fill-rule:evenodd; clip-rule:evenodd" xmlns:xlink="http://www.w3.org/1999/xlink">
<g><path style="opacity:0.986" fill="#fefffe" d="M 238.5,-0.5 C 253.167,-0.5 267.833,-0.5 282.5,-0.5C 308.303,2.49129 331.969,11.3246 353.5,26C 372.117,41.4032 383.95,60.9032 389,84.5C 389.333,145.167 389.667,205.833 390,266.5C 391.666,275.828 394.999,284.494 400,292.5C 407.612,303.112 416.279,312.779 426,321.5C 405.209,343.459 383.709,365.126 361.5,386.5C 343.167,370.167 325.833,352.833 309.5,334.5C 288.862,362.591 261.195,379.425 226.5,385C 183.93,392.913 148.097,381.08 119,349.5C 102.753,324.949 96.4193,297.949 100,268.5C 103.645,237.034 117.812,211.534 142.5,192C 174.977,169.613 210.977,156.28 250.5,152C 264.773,150.076 279.107,148.909 293.5,148.5C 293.667,136.829 293.5,125.162 293,113.5C 292.702,79.7488 275.869,65.9155 242.5,72C 224.121,77.5975 210.288,88.7641 201,105.5C 197.431,112.138 194.265,118.971 191.5,126C 163.158,124.227 134.824,122.06 106.5,119.5C 107.429,88.4816 119.095,62.3149 141.5,41C 169.327,16.756 201.661,2.92271 238.5,-0.5 Z M 281.5,202.5 C 285.5,202.5 289.5,202.5 293.5,202.5C 293.777,222.521 293.277,242.521 292,262.5C 290.348,278.971 283.514,292.804 271.5,304C 245.361,319.773 222.861,315.606 204,291.5C 191.93,262.945 198.097,239.111 222.5,220C 241.133,210.264 260.799,204.43 281.5,202.5 Z"/></g>
<g><path style="opacity:0.934" fill="#fefffe" d="M 450.5,380.5 C 460.506,380.334 470.506,380.5 480.5,381C 488.32,381.243 495.487,383.41 502,387.5C 503.211,390.552 504.045,393.719 504.5,397C 502.693,422.43 494.193,445.264 479,465.5C 475.134,470.544 470.301,474.211 464.5,476.5C 462.391,476.225 461.058,475.058 460.5,473C 469.025,454.259 475.025,434.759 478.5,414.5C 479.257,409.179 477.257,405.346 472.5,403C 461.621,400.672 450.621,400.005 439.5,401C 428.535,402.531 417.535,403.197 406.5,403C 404.923,399.518 405.923,396.852 409.5,395C 422.309,387.454 435.976,382.621 450.5,380.5 Z"/></g>
<g><path style="opacity:0.964" fill="#fefffe" d="M 275.5,511.5 C 259.167,511.5 242.833,511.5 226.5,511.5C 165.607,504.549 110.941,482.383 62.5,445C 42.8113,430.65 24.978,414.15 9,395.5C 7.54321,392.634 7.20988,389.634 8,386.5C 9.43823,385.282 11.1049,384.615 13,384.5C 33.6911,396.433 54.5245,408.267 75.5,420C 176.376,474.076 280.709,481.743 388.5,443C 407.408,435.919 426.075,428.253 444.5,420C 452.508,418.345 455.341,421.512 453,429.5C 450.25,435.152 446.417,439.986 441.5,444C 393.373,483.886 338.04,506.386 275.5,511.5 Z"/></g>
</svg>
