<?xml version="1.0" encoding="UTF-8"?>
<!DOCTYPE svg PUBLIC "-//W3C//DTD SVG 1.1//EN" "http://www.w3.org/Graphics/SVG/1.1/DTD/svg11.dtd">
<svg xmlns="http://www.w3.org/2000/svg" version="1.1" width="99px" height="102px" style="shape-rendering:geometricPrecision; text-rendering:geometricPrecision; image-rendering:optimizeQuality; fill-rule:evenodd; clip-rule:evenodd" xmlns:xlink="http://www.w3.org/1999/xlink">
<g><path style="opacity:0.934" fill="#fefffe" d="M 46.5,-0.5 C 48.1667,-0.5 49.8333,-0.5 51.5,-0.5C 57.2774,3.44263 62.2774,8.27597 66.5,14C 64.4639,18.7039 61.6305,22.8705 58,26.5C 57.3333,27.1667 57.3333,27.8333 58,28.5C 61.3427,24.3265 64.8427,20.3265 68.5,16.5C 74.3183,23.1337 78.3183,30.8004 80.5,39.5C 77.8333,43.1667 75.1667,46.8333 72.5,50.5C 72.6667,50.8333 72.8333,51.1667 73,51.5C 75.3333,48.8333 77.6667,46.1667 80,43.5C 82.91,62.0985 77.41,77.9318 63.5,91C 85.422,82.0262 95.2553,65.5262 93,41.5C 91.1567,30.9515 86.8233,21.6181 80,13.5C 77.5567,14.5933 75.0567,15.5933 72.5,16.5C 70.8333,15.5 69.5,14.1667 68.5,12.5C 73.2005,9.9077 78.2005,8.74103 83.5,9C 91.0719,17.9761 96.0719,28.1427 98.5,39.5C 98.5,45.8333 98.5,52.1667 98.5,58.5C 91.6991,81.2987 76.6991,95.6321 53.5,101.5C 50.5,101.5 47.5,101.5 44.5,101.5C 28.3601,97.6836 15.5268,89.0169 6,75.5C 3.31074,70.2397 1.14407,64.9064 -0.5,59.5C -0.5,52.5 -0.5,45.5 -0.5,38.5C 1.71807,27.7284 6.38474,18.0617 13.5,9.5C 19.1218,8.56786 24.4552,9.56786 29.5,12.5C 28.561,14.0534 27.3943,15.3867 26,16.5C 23.5631,15.3458 21.0631,14.8458 18.5,15C 20.5393,32.4574 25.0393,49.2908 32,65.5C 29.7089,56.9953 27.7089,48.3286 26,39.5C 24.869,33.5295 24.5356,27.5295 25,21.5C 31.0285,12.9724 38.1952,5.63905 46.5,-0.5 Z M 55.5,30.5 C 55.2624,32.4044 54.2624,33.7377 52.5,34.5C 52.7376,32.5956 53.7376,31.2623 55.5,30.5 Z M 71.5,52.5 C 71.573,54.0269 70.9063,55.0269 69.5,55.5C 69.427,53.9731 70.0937,52.9731 71.5,52.5 Z"/></g>
</svg>
